<?xml version="1.0" encoding="utf-8"?>
<!-- Generator: Adobe Illustrator 23.0.3, SVG Export Plug-In . SVG Version: 6.00 Build 0)  -->
<svg version="1.1" id="Слой_1" xmlns="http://www.w3.org/2000/svg" xmlns:xlink="http://www.w3.org/1999/xlink" x="0px" y="0px"
	 viewBox="0 0 35 26" style="enable-background:new 0 0 35 26;" xml:space="preserve">
<style type="text/css">
	.st0{fill:#1D1D1D;}
</style>
<g>
	<path class="st0" d="M25.14,4.06l-3.19-3.15C21.37,0.33,20.58,0,19.76,0c-0.82,0-1.61,0.33-2.19,0.91L1.04,17.44
		c-0.14,0.14-0.23,0.32-0.25,0.52l-0.78,7.08c-0.03,0.25,0.05,0.49,0.22,0.68C0.39,25.9,0.62,26,0.87,26h0.1l7.08-0.79
		c0.2-0.02,0.38-0.11,0.52-0.25L25.14,8.43c0.58-0.58,0.91-1.37,0.91-2.19C26.05,5.42,25.72,4.64,25.14,4.06z M8.1,22.98l-5.08-5.08
		L15.83,5.1l5.07,5.07L8.1,22.98z M2.34,19.71l3.95,3.95l-4.45,0.49L2.34,19.71z M23.87,7.2l-1.73,1.73l-5.07-5.07l1.73-1.73
		c0.53-0.53,1.39-0.53,1.92,0l3.15,3.15C24.4,5.81,24.4,6.67,23.87,7.2z"/>
	<circle class="st0" cx="19.34" cy="23.98" r="1.54"/>
	<circle class="st0" cx="26.4" cy="23.98" r="1.54"/>
	<circle class="st0" cx="33.46" cy="23.98" r="1.54"/>
</g>
</svg>
