<?xml version="1.0" encoding="utf-8"?>
<!-- Generator: Adobe Illustrator 23.0.3, SVG Export Plug-In . SVG Version: 6.00 Build 0)  -->
<svg version="1.1" id="Слой_1" xmlns="http://www.w3.org/2000/svg" xmlns:xlink="http://www.w3.org/1999/xlink" x="0px" y="0px"
	 viewBox="0 0 21 16" style="enable-background:new 0 0 21 16;" xml:space="preserve">
<g>
	<path class="st2" d="M7.02,16c-0.25,0-0.48-0.13-0.61-0.33L4.61,12.9H3.65C1.64,12.9,0,11.28,0,9.28V3.62C0,1.62,1.64,0,3.65,0
		h13.71C19.36,0,21,1.62,21,3.62v5.66c0,2-1.64,3.62-3.65,3.62H9.42l-1.79,2.76C7.5,15.87,7.26,16,7.02,16z M3.65,1.45
		c-1.21,0-2.19,0.97-2.19,2.17v5.66c0,1.2,0.98,2.17,2.19,2.17h1.37c0.25,0,0.48,0.13,0.61,0.33l1.39,2.15l1.39-2.15
		c0.13-0.21,0.36-0.33,0.61-0.33h8.33c1.21,0,2.19-0.97,2.19-2.17V3.62c0-1.2-0.98-2.17-2.19-2.17H3.65z"/>
</g>
</svg>
