<?xml version="1.0" encoding="utf-8"?>
<!-- Generator: Adobe Illustrator 23.0.3, SVG Export Plug-In . SVG Version: 6.00 Build 0)  -->
<svg version="1.1" id="Слой_1" xmlns="http://www.w3.org/2000/svg" xmlns:xlink="http://www.w3.org/1999/xlink" x="0px" y="0px"
	 viewBox="0 0 19 19" style="enable-background:new 0 0 19 19;" xml:space="preserve">
<style type="text/css">
	.st0{fill:#8C8C8C;}
</style>
<path class="st0" d="M18.47,8.99c0.48-0.49,0.65-1.2,0.44-1.86c-0.21-0.67-0.76-1.15-1.43-1.25l-4.44-0.72l-1.95-4.13
	C10.79,0.39,10.18,0,9.5,0C8.82,0,8.21,0.39,7.91,1.02L5.88,5.22L1.51,5.88c-0.67,0.1-1.22,0.58-1.43,1.25
	C-0.12,7.79,0.05,8.5,0.53,8.99l3.16,3.22c0.03,0.03,0.04,0.08,0.04,0.12l-0.75,4.54c-0.11,0.68,0.15,1.36,0.7,1.78
	C3.99,18.88,4.35,19,4.72,19c0.28,0,0.57-0.07,0.83-0.22l3.98-2.14l3.91,2.14c0.59,0.32,1.33,0.27,1.88-0.14
	c0.54-0.41,0.81-1.09,0.7-1.78l-0.75-4.54c-0.01-0.04,0.01-0.09,0.03-0.12L18.47,8.99z"/>
</svg>
