<?xml version="1.0" encoding="utf-8"?>
<!-- Generator: Adobe Illustrator 23.0.3, SVG Export Plug-In . SVG Version: 6.00 Build 0)  -->
<svg version="1.1" id="Слой_1" xmlns="http://www.w3.org/2000/svg" xmlns:xlink="http://www.w3.org/1999/xlink" x="0px" y="0px"
	 viewBox="0 0 21 11" style="enable-background:new 0 0 21 11;" xml:space="preserve">
<path class="st2" d="M20.89,5.11C19.81,3.34,16.25,0,10.5,0C4.75,0,1.19,3.34,0.11,5.11c-0.15,0.24-0.15,0.55,0,0.79
	C1.19,7.66,4.75,11,10.5,11c5.75,0,9.31-3.34,10.39-5.11C21.04,5.65,21.04,5.35,20.89,5.11z M1.57,5.5C2.42,4.4,4.45,2.56,7.6,1.8
	C6.57,2.68,5.89,4,5.89,5.5c0,1.5,0.67,2.82,1.71,3.7C4.45,8.44,2.42,6.6,1.57,5.5z M13.4,9.2c1.03-0.88,1.71-2.2,1.71-3.7
	c0-1.5-0.67-2.82-1.71-3.7c3.15,0.75,5.18,2.59,6.03,3.7C18.58,6.6,16.55,8.44,13.4,9.2z"/>
</svg>
