<?xml version="1.0" encoding="utf-8"?>
<!-- Generator: Adobe Illustrator 23.0.3, SVG Export Plug-In . SVG Version: 6.00 Build 0)  -->
<svg version="1.1" id="Слой_1" xmlns="http://www.w3.org/2000/svg" xmlns:xlink="http://www.w3.org/1999/xlink" x="0px" y="0px"
	 viewBox="0 0 20.91 10.53" style="enable-background:new 0 0 20.91 10.53;" xml:space="preserve">
<style type="text/css">
	.st0{fill:#8C8C8C;}
</style>
<g>
	<path class="st0" d="M20.8,4.89C19.73,3.2,16.18,0,10.46,0C4.73,0,1.19,3.2,0.11,4.89c-0.15,0.23-0.15,0.52,0,0.75
		c1.08,1.69,4.62,4.89,10.35,4.89c5.72,0,9.27-3.2,10.35-4.89C20.95,5.41,20.95,5.12,20.8,4.89z M10.46,9.85
		c-2.53,0-4.59-2.05-4.59-4.59c0-2.53,2.05-4.59,4.59-4.59c2.53,0,4.59,2.05,4.59,4.59C15.04,7.8,12.99,9.85,10.46,9.85z"/>
	<path class="st0" d="M10.46,2.51c-1.52,0-2.76,1.24-2.76,2.76s1.24,2.76,2.76,2.76s2.76-1.24,2.76-2.76S11.98,2.51,10.46,2.51z"/>
</g>
</svg>
