<?xml version="1.0" encoding="utf-8"?>
<!-- Generator: Adobe Illustrator 23.0.3, SVG Export Plug-In . SVG Version: 6.00 Build 0)  -->
<svg version="1.1" id="Capa_1" xmlns="http://www.w3.org/2000/svg" xmlns:xlink="http://www.w3.org/1999/xlink" x="0px" y="0px"
	 viewBox="0 0 24 24" style="enable-background:new 0 0 24 24;" xml:space="preserve">
<style type="text/css">
	.st0{fill:#D5AD5D;}
</style>
<g>
	<path class="st0" d="M17.38,0H6.62C2.97,0,0,2.97,0,6.62v10.75C0,21.03,2.97,24,6.62,24h10.75c3.65,0,6.62-2.97,6.62-6.62V6.62
		C24,2.97,21.03,0,17.38,0z M21.87,17.38c0,2.48-2.02,4.49-4.49,4.49H6.62c-2.48,0-4.49-2.02-4.49-4.49V6.62
		c0-2.48,2.02-4.49,4.49-4.49h10.75c2.48,0,4.49,2.02,4.49,4.49L21.87,17.38L21.87,17.38z"/>
	<path class="st0" d="M12,5.82c-3.41,0-6.18,2.77-6.18,6.18s2.77,6.18,6.18,6.18s6.18-2.77,6.18-6.18S15.41,5.82,12,5.82z M12,16.05
		c-2.24,0-4.05-1.82-4.05-4.05c0-2.24,1.82-4.05,4.05-4.05s4.05,1.82,4.05,4.05C16.05,14.24,14.24,16.05,12,16.05z"/>
	<path class="st0" d="M18.44,4.01c-0.41,0-0.81,0.17-1.1,0.46s-0.46,0.69-0.46,1.1s0.17,0.81,0.46,1.1c0.29,0.29,0.69,0.46,1.1,0.46
		s0.81-0.17,1.1-0.46S20,5.98,20,5.57s-0.17-0.81-0.46-1.1C19.26,4.18,18.86,4.01,18.44,4.01z"/>
</g>
</svg>
