<?xml version="1.0" encoding="utf-8"?>
<!-- Generator: Adobe Illustrator 23.0.3, SVG Export Plug-In . SVG Version: 6.00 Build 0)  -->
<svg version="1.1" id="Слой_1" xmlns="http://www.w3.org/2000/svg" xmlns:xlink="http://www.w3.org/1999/xlink" x="0px" y="0px"
	 viewBox="0 0 22.27 18.72" style="enable-background:new 0 0 22.27 18.72;" xml:space="preserve">
<style type="text/css">
	.st0{fill:#D5AD5D;}
</style>
<g>
	<path class="st0" d="M22.27,9.13c0-1.09-0.88-1.97-1.97-1.97h-7.1V3.88C13.19,1.74,11.45,0,9.31,0c-0.39,0-0.7,0.31-0.7,0.7v4.83
		c0,1.13-1.54,1.65-1.55,1.66C6.77,7.28,6.57,7.55,6.57,7.86v10.17c0,0.39,0.31,0.7,0.7,0.7h9.7c1.09,0,1.97-0.88,1.97-1.97
		c0-0.2-0.03-0.4-0.09-0.58c0.98-0.11,1.75-0.95,1.75-1.96c0-0.2-0.03-0.4-0.09-0.58c0.98-0.11,1.75-0.95,1.75-1.96
		c0-0.48-0.18-0.93-0.47-1.27C22.09,10.05,22.27,9.61,22.27,9.13z"/>
	<path class="st0" d="M4.79,7.29H0.7C0.31,7.29,0,7.6,0,7.99v10.03c0,0.39,0.31,0.7,0.7,0.7h4.09c0.39,0,0.7-0.31,0.7-0.7V7.99
		C5.49,7.6,5.17,7.29,4.79,7.29z"/>
</g>
</svg>
