<?xml version="1.0" encoding="utf-8"?>
<!-- Generator: Adobe Illustrator 23.0.3, SVG Export Plug-In . SVG Version: 6.00 Build 0)  -->
<svg version="1.1" id="Слой_1" xmlns="http://www.w3.org/2000/svg" xmlns:xlink="http://www.w3.org/1999/xlink" x="0px" y="0px"
	 viewBox="0 0 23 19" style="enable-background:new 0 0 23 19;" xml:space="preserve">
<style type="text/css">
	.st0{fill:none;stroke:#000000;stroke-width:1.4;stroke-linecap:round;stroke-linejoin:round;stroke-miterlimit:10;}
	.st1{stroke:#000000;stroke-width:1.4;stroke-linecap:round;stroke-linejoin:round;stroke-miterlimit:10;}
	.st2{fill:#D8D8D8;}
	.st3{fill:none;stroke:#9D7A35;stroke-width:3;stroke-linecap:round;stroke-linejoin:round;stroke-miterlimit:10;}
</style>
<g>
	<path class="st2" d="M23,9.26c0-1.1-0.91-2-2.04-2h-7.34V3.94c0-2.17-1.8-3.94-4.01-3.94c-0.4,0-0.72,0.32-0.72,0.71v4.9
		c0,1.15-1.59,1.68-1.61,1.68c-0.3,0.09-0.5,0.37-0.5,0.68v10.32c0,0.39,0.32,0.71,0.72,0.71h10.02c1.12,0,2.04-0.9,2.04-2
		c0-0.21-0.03-0.4-0.09-0.59c1.02-0.11,1.81-0.96,1.81-1.99c0-0.21-0.03-0.4-0.09-0.59c1.02-0.11,1.81-0.96,1.81-1.99
		c0-0.49-0.18-0.94-0.48-1.29C22.82,10.2,23,9.75,23,9.26z M20.96,12.42h-1.72c0,0-0.01,0-0.01,0h-2.02c-0.4,0-0.72,0.32-0.72,0.71
		c0,0.39,0.32,0.71,0.72,0.71h2.04c0.32,0.01,0.58,0.26,0.58,0.58c0,0.32-0.26,0.58-0.59,0.58h-1.72c-0.01,0-0.01,0-0.02,0h-0.8
		c-0.4,0-0.72,0.32-0.72,0.71c0,0.39,0.32,0.71,0.72,0.71h0.84c0.31,0.01,0.57,0.26,0.57,0.57c0,0.32-0.26,0.58-0.59,0.58H8.23V8.45
		c0.76-0.36,2.11-1.22,2.11-2.83V1.52c1.06,0.31,1.84,1.27,1.84,2.42v4.03c0,0.39,0.32,0.71,0.72,0.71h8.06
		c0.32,0,0.59,0.26,0.59,0.58c0,0.32-0.26,0.58-0.59,0.58h-3.37c-0.4,0-0.72,0.32-0.72,0.71c0,0.39,0.32,0.71,0.72,0.71h3.37
		c0.32,0,0.59,0.26,0.59,0.58C21.55,12.16,21.29,12.42,20.96,12.42z"/>
	<path class="st2" d="M4.95,7.4H0.72C0.32,7.4,0,7.72,0,8.11v10.18C0,18.68,0.32,19,0.72,19h4.22c0.4,0,0.72-0.32,0.72-0.71V8.11
		C5.67,7.72,5.35,7.4,4.95,7.4z M4.22,17.58H1.45V8.82h2.78V17.58z"/>
</g>
</svg>
