<?xml version="1.0" encoding="utf-8"?>
<!-- Generator: Adobe Illustrator 23.0.3, SVG Export Plug-In . SVG Version: 6.00 Build 0)  -->
<svg version="1.1" id="Capa_1" xmlns="http://www.w3.org/2000/svg" xmlns:xlink="http://www.w3.org/1999/xlink" x="0px" y="0px"
	 viewBox="0 0 33 23" style="enable-background:new 0 0 33 23;" xml:space="preserve">
<style type="text/css">
	.st0{fill:#8C8C8C;}
</style>
<g>
	<path class="st0" d="M33,11.32c0-0.05,0-0.09-0.01-0.14l-0.07-0.27c-0.02-0.05-0.04-0.1-0.08-0.16c-0.03-0.05-0.06-0.09-0.1-0.14
		c-0.04-0.05-0.08-0.09-0.13-0.14c-0.04-0.04-0.09-0.07-0.13-0.1L11.35,0.12c-0.44-0.22-0.97-0.14-1.32,0.2
		C9.67,0.65,9.57,1.17,9.77,1.61l4.4,9.74l-4.06,10.08c-0.17,0.42-0.07,0.91,0.3,1.27c0.22,0.19,0.5,0.29,0.78,0.29
		c0.18,0,0.36-0.04,0.53-0.13l20.64-10.52l0.15-0.09c0.04-0.03,0.09-0.06,0.12-0.1c0.05-0.04,0.09-0.09,0.13-0.14l0,0
		c0.04-0.05,0.08-0.1,0.1-0.15c0.03-0.05,0.05-0.1,0.07-0.15L33,11.5l0-0.05C33,11.41,33,11.36,33,11.32z M11.49,21.53l4.11-10.21
		l-4.45-9.85l20.35,9.86L11.49,21.53z"/>
	<path class="st0" d="M10.98,11.32c0-0.27-0.23-0.5-0.5-0.5H0.5c-0.28,0-0.5,0.22-0.5,0.5c0,0.14,0.06,0.26,0.15,0.35
		c0.09,0.09,0.22,0.15,0.36,0.15h9.97C10.75,11.82,10.98,11.6,10.98,11.32z"/>
	<path class="st0" d="M9.41,14.69H4.42c-0.28,0-0.5,0.22-0.5,0.5c0,0.14,0.06,0.26,0.15,0.35c0.09,0.09,0.22,0.15,0.36,0.15h4.99
		c0.28,0,0.5-0.22,0.5-0.5C9.91,14.91,9.69,14.69,9.41,14.69z"/>
	<path class="st0" d="M4.42,7.96h4.99c0.28,0,0.5-0.22,0.5-0.5c0-0.27-0.23-0.5-0.5-0.5H4.42c-0.28,0-0.5,0.22-0.5,0.5
		c0,0.14,0.06,0.26,0.15,0.35C4.16,7.9,4.28,7.96,4.42,7.96z"/>
</g>
</svg>
