<?xml version="1.0" encoding="utf-8"?>
<!-- Generator: Adobe Illustrator 23.0.3, SVG Export Plug-In . SVG Version: 6.00 Build 0)  -->
<svg version="1.1" id="Capa_1" xmlns="http://www.w3.org/2000/svg" xmlns:xlink="http://www.w3.org/1999/xlink" x="0px" y="0px"
	 viewBox="0 0 18 18" style="enable-background:new 0 0 18 18;" xml:space="preserve">
<style type="text/css">
	.st0{fill-rule:evenodd;clip-rule:evenodd;fill:#D5AD5D;}
</style>
<g id="Settings">
	<g>
		<path class="st0" d="M17.9,8c0-0.3-0.3-0.4-0.6-0.4c-0.8,0-1.6-0.5-1.9-1.2c-0.3-0.8-0.1-1.7,0.5-2.2c0.2-0.2,0.2-0.5,0.1-0.7
			c-0.4-0.5-0.9-1-1.4-1.4c-0.2-0.2-0.5-0.1-0.7,0.1c-0.5,0.6-1.5,0.8-2.2,0.5c-0.8-0.3-1.3-1.1-1.2-2c0-0.3-0.2-0.5-0.4-0.5
			C9.4,0,8.7,0,8,0.1c-0.3,0-0.5,0.3-0.4,0.5c0,0.8-0.5,1.6-1.2,1.9C5.6,2.8,4.7,2.6,4.1,2C3.9,1.8,3.6,1.8,3.4,1.9
			C2.9,2.3,2.4,2.8,2,3.4C1.8,3.6,1.8,3.9,2,4c0.6,0.6,0.8,1.5,0.5,2.2C2.2,7,1.5,7.5,0.6,7.5C0.3,7.5,0.1,7.7,0.1,8
			C0,8.6,0,9.3,0.1,10c0,0.3,0.3,0.4,0.6,0.4c0.8,0,1.5,0.5,1.9,1.2c0.3,0.8,0.1,1.7-0.5,2.2c-0.2,0.2-0.2,0.5-0.1,0.7
			c0.4,0.5,0.9,1,1.4,1.4C3.6,16.2,3.9,16.2,4,16c0.5-0.6,1.5-0.8,2.2-0.5c0.8,0.3,1.3,1.1,1.2,2c0,0.3,0.2,0.5,0.4,0.5
			C8.3,18,8.6,18,9,18c0.3,0,0.7,0,1-0.1c0.3,0,0.5-0.3,0.4-0.5c0-0.8,0.5-1.6,1.2-1.9c0.7-0.3,1.7-0.1,2.2,0.5
			c0.2,0.2,0.5,0.2,0.7,0.1c0.5-0.4,1-0.9,1.5-1.4c0.2-0.2,0.1-0.5-0.1-0.7c-0.6-0.6-0.8-1.5-0.5-2.2c0.3-0.7,1-1.2,1.8-1.2l0.1,0
			c0.3,0,0.5-0.2,0.5-0.4C18,9.4,18,8.7,17.9,8z M9,12c-1.7,0-3-1.3-3-3c0-1.7,1.3-3,3-3c1.7,0,3,1.3,3,3C12,10.7,10.7,12,9,12z"/>
	</g>
</g>
</svg>
