<?xml version="1.0" encoding="utf-8"?>
<!-- Generator: Adobe Illustrator 23.0.3, SVG Export Plug-In . SVG Version: 6.00 Build 0)  -->
<svg version="1.1" id="Слой_1" xmlns="http://www.w3.org/2000/svg" xmlns:xlink="http://www.w3.org/1999/xlink" x="0px" y="0px"
	 viewBox="0 0 23 21" style="enable-background:new 0 0 23 21;" xml:space="preserve">
<style type="text/css">
	.st0{fill:#D5AD5D;}
</style>
<g>
	<path class="st0" d="M0.53,21c-0.06,0-0.13-0.01-0.19-0.04C0.13,20.89,0,20.69,0,20.47v-3.15C0,11.05,5.12,5.95,11.41,5.95h1.41
		V0.52c0-0.22,0.13-0.41,0.34-0.49c0.2-0.08,0.43-0.02,0.58,0.14l9.12,9.97c0.18,0.2,0.18,0.51,0,0.71l-9.12,9.97
		c-0.15,0.16-0.38,0.22-0.58,0.14s-0.34-0.27-0.34-0.49l-0.02-5.42c-4.19,0-8.2,1.77-11.03,4.85l-0.86,0.94
		C0.81,20.94,0.67,21,0.53,21z M11.41,7C5.7,7,1.05,11.63,1.05,17.32v1.8c3.02-3.26,7.3-5.13,11.75-5.13h0.55
		c0.29,0,0.53,0.23,0.53,0.53v4.59l7.88-8.61l-7.88-8.61v4.59c0,0.29-0.24,0.53-0.53,0.53L11.41,7L11.41,7z"/>
</g>
</svg>
