<?xml version="1.0" encoding="utf-8"?>
<!-- Generator: Adobe Illustrator 23.0.3, SVG Export Plug-In . SVG Version: 6.00 Build 0)  -->
<svg version="1.1" id="Слой_1" xmlns="http://www.w3.org/2000/svg" xmlns:xlink="http://www.w3.org/1999/xlink" x="0px" y="0px"
	 viewBox="0 0 26 25" style="enable-background:new 0 0 26 25;" xml:space="preserve">
<style type="text/css">
	.st0{fill:#1E1E1E;}
</style>
<g>
	<path class="st0" d="M13,0C13,0,13,0,13,0c0.97,0,1.84,0.54,2.28,1.42l2.48,5.03c0.1,0.21,0.3,0.35,0.53,0.38l5.54,0.81
		c0.96,0.14,1.75,0.8,2.05,1.73c0.3,0.93,0.05,1.92-0.64,2.6l-4.01,3.91c-0.17,0.16-0.24,0.39-0.2,0.62l0.95,5.53
		c0.16,0.96-0.22,1.91-1.01,2.48c-0.79,0.57-1.81,0.65-2.67,0.19l-4.96-2.61c-0.2-0.11-0.45-0.11-0.65,0l-4.96,2.61
		c-0.86,0.45-1.88,0.38-2.67-0.19c-0.79-0.57-1.17-1.52-1.01-2.48l0.95-5.53c0.04-0.23-0.04-0.46-0.2-0.62l-4.01-3.91
		c-0.7-0.68-0.94-1.68-0.64-2.6c0.3-0.93,1.09-1.59,2.05-1.73l5.54-0.81c0.23-0.03,0.43-0.18,0.53-0.38l2.48-5.03
		C11.16,0.54,12.03,0,13,0z M19.47,23.16c0.19,0,0.34-0.09,0.41-0.14c0.11-0.08,0.35-0.3,0.28-0.69l-0.95-5.53
		c-0.14-0.82,0.13-1.66,0.73-2.25l4.01-3.91c0.28-0.27,0.22-0.59,0.18-0.72s-0.18-0.42-0.57-0.48l-5.54-0.81
		c-0.83-0.12-1.54-0.64-1.91-1.39l-2.48-5.03c-0.17-0.35-0.5-0.39-0.63-0.39l0,0c-0.13,0-0.45,0.04-0.63,0.39L9.89,7.26
		C9.52,8.01,8.81,8.53,7.98,8.65L2.44,9.45C2.05,9.51,1.91,9.81,1.87,9.93c-0.04,0.12-0.1,0.44,0.18,0.72l4.01,3.91
		c0.6,0.58,0.87,1.42,0.73,2.25l-0.95,5.53c-0.07,0.39,0.17,0.61,0.28,0.69c0.11,0.08,0.39,0.24,0.74,0.05l4.96-2.61
		c0.74-0.39,1.62-0.39,2.36,0l4.96,2.61C19.26,23.14,19.37,23.16,19.47,23.16z"/>
</g>
</svg>
