<?xml version="1.0" encoding="utf-8"?>
<!-- Generator: Adobe Illustrator 23.0.3, SVG Export Plug-In . SVG Version: 6.00 Build 0)  -->
<svg version="1.1" id="Слой_1" xmlns="http://www.w3.org/2000/svg" xmlns:xlink="http://www.w3.org/1999/xlink" x="0px" y="0px"
	 viewBox="0 0 400 496" style="enable-background:new 0 0 400 496;" xml:space="preserve">
<style type="text/css">
	.st0{fill:#8C8C8C;}
</style>
<path class="st0" d="M320,0H79.99C35.93,0.05,0.05,35.93,0,80v400c0,6.9,4.4,13,10.94,15.18c1.67,0.56,3.38,0.82,5.07,0.82
	c4.94,0,9.71-2.29,12.79-6.4L136,346.67L243.2,489.6c3,4.01,7.79,6.4,12.8,6.4c8.82,0,16-7.18,16-16V224h112c8.82,0,16-7.18,16-16
	V79.99C399.95,35.93,364.07,0.05,320,0z M320,32c26.47,0,48,21.53,48,48v112h-96V80C272,53.53,293.53,32,320,32z M240,80v352
	l-91.2-121.6c-3-4.01-7.79-6.4-12.8-6.4s-9.8,2.39-12.8,6.4L32,432V80.01C32.03,53.57,53.57,32.03,80,32h175.99
	C245.68,45.68,240,62.42,240,80z"/>
</svg>
