<?xml version="1.0" encoding="utf-8"?>
<!-- Generator: Adobe Illustrator 23.0.3, SVG Export Plug-In . SVG Version: 6.00 Build 0)  -->
<svg version="1.1" id="Capa_1" xmlns="http://www.w3.org/2000/svg" xmlns:xlink="http://www.w3.org/1999/xlink" x="0px" y="0px"
	 viewBox="0 0 27 23" style="enable-background:new 0 0 27 23;" xml:space="preserve">
<style type="text/css">
	.st0{fill:#1D1D1D;}
</style>
<g>
	<g>
		<path class="st0" d="M27,2.72c-0.99,0.46-2.06,0.77-3.18,0.91c1.14-0.72,2.02-1.86,2.43-3.21C25.18,1.09,24,1.57,22.73,1.83
			C21.72,0.7,20.29,0,18.69,0c-3.06,0-5.54,2.6-5.54,5.81c0,0.45,0.05,0.9,0.14,1.32C8.69,6.89,4.61,4.58,1.88,1.06
			C1.4,1.92,1.13,2.92,1.13,3.98C1.13,6,2.11,7.77,3.6,8.81C2.69,8.78,1.83,8.52,1.09,8.09v0.07c0,2.81,1.91,5.16,4.44,5.7
			c-0.46,0.13-0.95,0.2-1.46,0.2c-0.36,0-0.7-0.04-1.04-0.11c0.71,2.31,2.75,3.99,5.17,4.03c-1.89,1.56-4.28,2.48-6.88,2.48
			c-0.45,0-0.89-0.03-1.32-0.08C2.45,22.04,5.36,23,8.49,23c10.19,0,15.76-8.85,15.76-16.53l-0.02-0.75
			C25.32,4.91,26.26,3.89,27,2.72z"/>
	</g>
</g>
</svg>
