<?xml version="1.0" encoding="utf-8"?>
<!-- Generator: Adobe Illustrator 23.0.3, SVG Export Plug-In . SVG Version: 6.00 Build 0)  -->
<svg version="1.1" id="Capa_1" xmlns="http://www.w3.org/2000/svg" xmlns:xlink="http://www.w3.org/1999/xlink" x="0px" y="0px"
	 viewBox="0 0 29 17" style="enable-background:new 0 0 29 17;" xml:space="preserve">
<style type="text/css">
	.st0{fill:#D5AD5D;}
</style>
<path class="st0" d="M28.34,1.15c0.2-0.66,0-1.15-0.96-1.15h-3.17c-0.81,0-1.18,0.42-1.38,0.89c0,0-1.62,3.88-3.9,6.4
	c-0.74,0.73-1.08,0.96-1.48,0.96c-0.2,0-0.51-0.23-0.51-0.9v-6.2c0-0.8-0.23-1.15-0.89-1.15h-4.99c-0.51,0-0.81,0.37-0.81,0.72
	c0,0.75,1.14,0.93,1.26,3.05v4.61c0,1.01-0.18,1.2-0.59,1.2c-1.08,0-3.69-3.9-5.24-8.36C5.38,0.35,5.07,0,4.26,0H1.09
	C0.18,0,0,0.42,0,0.89c0,0.83,1.08,4.95,5.01,10.39C7.63,14.99,11.33,17,14.69,17c2.02,0,2.27-0.45,2.27-1.22
	c0-3.55-0.18-3.88,0.83-3.88c0.47,0,1.28,0.23,3.16,2.02C23.1,16.05,23.46,17,24.66,17h3.17c0.9,0,1.36-0.45,1.1-1.33
	c-0.6-1.85-4.68-5.67-4.86-5.92c-0.47-0.6-0.33-0.86,0-1.39C24.07,8.35,27.94,2.98,28.34,1.15L28.34,1.15z"/>
</svg>
