<svg version="1.1" id="Слой_1" xmlns="http://www.w3.org/2000/svg" x="0" y="0" viewBox="0 0 21 16" xml:space="preserve"><style/><path d="M7.02 16c-.25 0-.48-.13-.61-.33l-1.8-2.77h-.96C1.64 12.9 0 11.28 0 9.28V3.62C0 1.62 1.64 0 3.65 0h13.71c2 0 3.64 1.62 3.64 3.62v5.66c0 2-1.64 3.62-3.65 3.62H9.42l-1.79 2.76a.73.73 0 0 1-.61.34zM3.65 1.45c-1.21 0-2.19.97-2.19 2.17v5.66c0 1.2.98 2.17 2.19 2.17h1.37c.25 0 .48.13.61.33l1.39 2.15 1.39-2.15c.13-.21.36-.33.61-.33h8.33c1.21 0 2.19-.97 2.19-2.17V3.62c0-1.2-.98-2.17-2.19-2.17H3.65z" fill="#d8d8d8"/></svg>