<svg version="1.1" id="Слой_1" xmlns="http://www.w3.org/2000/svg" x="0" y="0" viewBox="0 0 35 26" xml:space="preserve"><style>.st0{fill:#1d1d1d}</style><path class="st0" d="M25.14 4.06L21.95.91C21.37.33 20.58 0 19.76 0c-.82 0-1.61.33-2.19.91L1.04 17.44c-.14.14-.23.32-.25.52l-.78 7.08c-.03.25.05.49.22.68.16.18.39.28.64.28h.1l7.08-.79c.2-.02.38-.11.52-.25L25.14 8.43c.58-.58.91-1.37.91-2.19 0-.82-.33-1.6-.91-2.18zM8.1 22.98L3.02 17.9 15.83 5.1l5.07 5.07L8.1 22.98zm-5.76-3.27l3.95 3.95-4.45.49.5-4.44zM23.87 7.2l-1.73 1.73-5.07-5.07 1.73-1.73c.53-.53 1.39-.53 1.92 0l3.15 3.15c.53.53.53 1.39 0 1.92z"/><circle class="st0" cx="19.34" cy="23.98" r="1.54"/><circle class="st0" cx="26.4" cy="23.98" r="1.54"/><circle class="st0" cx="33.46" cy="23.98" r="1.54"/></svg>