<svg xmlns="http://www.w3.org/2000/svg" viewBox="0 0 24 24"><path class="st0" d="M17.38 0H6.62C2.97 0 0 2.97 0 6.62v10.75C0 21.03 2.97 24 6.62 24h10.75c3.65 0 6.62-2.97 6.62-6.62V6.62C24 2.97 21.03 0 17.38 0zm4.49 17.38c0 2.48-2.02 4.49-4.49 4.49H6.62c-2.48 0-4.49-2.02-4.49-4.49V6.62c0-2.48 2.02-4.49 4.49-4.49h10.75c2.48 0 4.49 2.02 4.49 4.49l.01 10.76z"/><path class="st0" d="M12 5.82c-3.41 0-6.18 2.77-6.18 6.18 0 3.41 2.77 6.18 6.18 6.18s6.18-2.77 6.18-6.18c0-3.41-2.77-6.18-6.18-6.18zm0 10.23c-2.24 0-4.05-1.82-4.05-4.05 0-2.24 1.82-4.05 4.05-4.05s4.05 1.82 4.05 4.05c0 2.24-1.81 4.05-4.05 4.05zm6.44-12.04a1.569 1.569 0 0 0-1.56 1.56 1.569 1.569 0 0 0 1.56 1.56A1.569 1.569 0 0 0 20 5.57c0-.41-.17-.81-.46-1.1-.28-.29-.68-.46-1.1-.46z"/></svg>