<svg xmlns="http://www.w3.org/2000/svg" viewBox="0 0 22.27 18.72"><path d="M22.27 9.13c0-1.09-.88-1.97-1.97-1.97h-7.1V3.88A3.899 3.899 0 0 0 9.31 0c-.39 0-.7.31-.7.7v4.83c0 1.13-1.54 1.65-1.55 1.66a.7.7 0 0 0-.49.67v10.17c0 .39.31.7.7.7h9.7a1.967 1.967 0 0 0 1.88-2.55 1.98 1.98 0 0 0 1.75-1.96c0-.2-.03-.4-.09-.58a1.98 1.98 0 0 0 1.75-1.96c0-.48-.18-.93-.47-1.27.3-.36.48-.8.48-1.28zM4.79 7.29H.7c-.39 0-.7.31-.7.7v10.03c0 .39.31.7.7.7h4.09c.39 0 .7-.31.7-.7V7.99c0-.39-.32-.7-.7-.7z" fill="#8c8c8c"/></svg>