<svg xmlns="http://www.w3.org/2000/svg" viewBox="0 0 23 19"><path d="M23 9.26c0-1.1-.91-2-2.04-2h-7.34V3.94c0-2.17-1.8-3.94-4.01-3.94-.4 0-.72.32-.72.71v4.9c0 1.15-1.59 1.68-1.61 1.68-.3.09-.5.37-.5.68v10.32c0 .39.32.71.72.71h10.02c1.12 0 2.04-.9 2.04-2 0-.21-.03-.4-.09-.59 1.02-.11 1.81-.96 1.81-1.99 0-.21-.03-.4-.09-.59 1.02-.11 1.81-.96 1.81-1.99 0-.49-.18-.94-.48-1.29.3-.35.48-.8.48-1.29zm-2.04 3.16h-3.75c-.4 0-.72.32-.72.71 0 .39.32.71.72.71h2.04c.32.01.58.26.58.58 0 .32-.26.58-.59.58H16.7c-.4 0-.72.32-.72.71 0 .39.32.71.72.71h.84c.31.01.57.26.57.57 0 .32-.26.58-.59.58H8.23V8.45c.76-.36 2.11-1.22 2.11-2.83v-4.1c1.06.31 1.84 1.27 1.84 2.42v4.03c0 .39.32.71.72.71h8.06c.32 0 .59.26.59.58 0 .32-.26.58-.59.58h-3.37c-.4 0-.72.32-.72.71 0 .39.32.71.72.71h3.37c.32 0 .59.26.59.58 0 .32-.26.58-.59.58zM4.95 7.4H.72c-.4 0-.72.32-.72.71v10.18c0 .39.32.71.72.71h4.22c.4 0 .72-.32.72-.71V8.11a.7.7 0 0 0-.71-.71zm-.73 10.18H1.45V8.82h2.78v8.76z" fill="#d8d8d8"/></svg>