<svg version="1.1" id="Capa_1" xmlns="http://www.w3.org/2000/svg" x="0" y="0" viewBox="0 0 33 23" xml:space="preserve"><style>.st0{fill:#8c8c8c}</style><path class="st0" d="M33 11.32c0-.05 0-.09-.01-.14l-.07-.27c-.02-.05-.04-.1-.08-.16-.03-.05-.06-.09-.1-.14-.04-.05-.08-.09-.13-.14-.04-.04-.09-.07-.13-.1L11.35.12c-.44-.22-.97-.14-1.32.2-.36.33-.46.85-.26 1.29l4.4 9.74-4.06 10.08c-.17.42-.07.91.3 1.27.22.19.5.29.78.29.18 0 .36-.04.53-.13l20.64-10.52.15-.09c.04-.03.09-.06.12-.1.05-.04.09-.09.13-.14.04-.05.08-.1.1-.15.03-.05.05-.1.07-.15l.07-.21v-.18zM11.49 21.53l4.11-10.21-4.45-9.85 20.35 9.86-20.01 10.2z"/><path class="st0" d="M10.98 11.32c0-.27-.23-.5-.5-.5H.5a.495.495 0 0 0-.35.85c.09.09.22.15.36.15h9.97c.27 0 .5-.22.5-.5zm-1.57 3.37H4.42a.495.495 0 0 0-.35.85c.09.09.22.15.36.15h4.99c.28 0 .5-.22.5-.5a.51.51 0 0 0-.51-.5zM4.42 7.96h4.99c.28 0 .5-.22.5-.5 0-.27-.23-.5-.5-.5H4.42a.495.495 0 0 0-.35.85c.09.09.21.15.35.15z"/></svg>