<svg xmlns="http://www.w3.org/2000/svg" viewBox="0 0 18 18"><path d="M17.9 8c0-.3-.3-.4-.6-.4-.8 0-1.6-.5-1.9-1.2-.3-.8-.1-1.7.5-2.2.2-.2.2-.5.1-.7-.4-.5-.9-1-1.4-1.4-.2-.2-.5-.1-.7.1-.5.6-1.5.8-2.2.5-.8-.3-1.3-1.1-1.2-2 0-.3-.2-.5-.4-.5C9.4 0 8.7 0 8 .1c-.3 0-.5.3-.4.5 0 .8-.5 1.6-1.2 1.9-.8.3-1.7.1-2.3-.5-.2-.2-.5-.2-.7-.1-.5.4-1 .9-1.4 1.5-.2.2-.2.5 0 .6.6.6.8 1.5.5 2.2-.3.8-1 1.3-1.9 1.3-.3 0-.5.2-.5.5-.1.6-.1 1.3 0 2 0 .3.3.4.6.4.8 0 1.5.5 1.9 1.2.3.8.1 1.7-.5 2.2-.2.2-.2.5-.1.7.4.5.9 1 1.4 1.4.2.3.5.3.6.1.5-.6 1.5-.8 2.2-.5.8.3 1.3 1.1 1.2 2 0 .3.2.5.4.5H9c.3 0 .7 0 1-.1.3 0 .5-.3.4-.5 0-.8.5-1.6 1.2-1.9.7-.3 1.7-.1 2.2.5.2.2.5.2.7.1.5-.4 1-.9 1.5-1.4.2-.2.1-.5-.1-.7-.6-.6-.8-1.5-.5-2.2.3-.7 1-1.2 1.8-1.2h.1c.3 0 .5-.2.5-.4.2-.8.2-1.5.1-2.2zM9 12c-1.7 0-3-1.3-3-3s1.3-3 3-3 3 1.3 3 3-1.3 3-3 3z" fill-rule="evenodd" clip-rule="evenodd" fill="#d5ad5d"/></svg>