<svg xmlns="http://www.w3.org/2000/svg" viewBox="0 0 23 21"><path d="M.53 21c-.06 0-.13-.01-.19-.04a.508.508 0 0 1-.34-.49v-3.15C0 11.05 5.12 5.95 11.41 5.95h1.41V.52c0-.22.13-.41.34-.49.2-.08.43-.02.58.14l9.12 9.97c.18.2.18.51 0 .71l-9.12 9.97c-.15.16-.38.22-.58.14s-.34-.27-.34-.49l-.02-5.42c-4.19 0-8.2 1.77-11.03 4.85l-.86.94c-.1.1-.24.16-.38.16zM11.41 7C5.7 7 1.05 11.63 1.05 17.32v1.8a16.06 16.06 0 0 1 11.75-5.13h.55c.29 0 .53.23.53.53v4.59l7.88-8.61-7.88-8.61v4.59c0 .29-.24.53-.53.53L11.41 7z" fill="#d5ad5d"/></svg>