<?xml version="1.0" encoding="utf-8"?><svg viewBox="0 0 400 496" xmlns="http://www.w3.org/2000/svg" xmlns:xlink="http://www.w3.org/1999/xlink"><style>:root>svg{display:none}:root>svg:target{display:block}</style><svg viewBox="0 0 13 26" id="FB" xmlns="http://www.w3.org/2000/svg"><path class="aast0" d="M13 0v4.88H9.75c-.97 0-1.63.65-1.63 1.63v3.25H13v4.88H8.13V26H3.25V14.63H0V9.75h3.25V5.69C3.25 2.6 5.85 0 8.94 0H13z"/></svg><svg viewBox="0 0 13 26" id="FB-hover" xmlns="http://www.w3.org/2000/svg"><path class="abst0" d="M13 0v4.88H9.75c-.97 0-1.63.65-1.63 1.63v3.25H13v4.88H8.13V26H3.25V14.63H0V9.75h3.25V5.69C3.25 2.6 5.85 0 8.94 0H13z"/></svg><svg viewBox="0 0 16 10.35" id="arrow-down" xmlns="http://www.w3.org/2000/svg"><path d="M8 7.9L3.05 1.5h9.89L8 7.9m0 2.45L16 0H0l8 10.35z" fill="#8c8c8c"/></svg><svg viewBox="0 0 15 34" id="arrow-main-slider-left" xmlns="http://www.w3.org/2000/svg"><path class="adst0" d="M13.47 34c-.46 0-.92-.21-1.22-.6L.31 17.91a1.5 1.5 0 0 1 0-1.82L12.24.6c.51-.66 1.47-.8 2.15-.29.68.5.81 1.45.3 2.11L3.46 17l11.23 14.59c.51.66.38 1.61-.3 2.11-.28.2-.6.3-.92.3z"/></svg><svg viewBox="0 0 15 34" id="arrow-main-slider-right" xmlns="http://www.w3.org/2000/svg"><path class="aest0" d="M1.53 34c.46 0 .92-.21 1.22-.6l11.93-15.49a1.5 1.5 0 0 0 0-1.82L2.76.6C2.25-.07 1.28-.2.61.3-.07.8-.2 1.75.31 2.41L11.54 17 .31 31.59c-.51.66-.38 1.61.3 2.11.28.2.6.3.92.3z"/></svg><svg viewBox="0 0 16 10.35" id="arrow-up" xmlns="http://www.w3.org/2000/svg"><path d="M8 2.45l4.95 6.4h-9.9L8 2.45M8 0L0 10.35h16L8 0z" fill="#8c8c8c"/></svg><svg viewBox="0 0 21 16" id="comment" xmlns="http://www.w3.org/2000/svg"><path class="agst2" d="M7.02 16c-.25 0-.48-.13-.61-.33l-1.8-2.77h-.96C1.64 12.9 0 11.28 0 9.28V3.62C0 1.62 1.64 0 3.65 0h13.71c2 0 3.64 1.62 3.64 3.62v5.66c0 2-1.64 3.62-3.65 3.62H9.42l-1.79 2.76a.73.73 0 0 1-.61.34zM3.65 1.45c-1.21 0-2.19.97-2.19 2.17v5.66c0 1.2.98 2.17 2.19 2.17h1.37c.25 0 .48.13.61.33l1.39 2.15 1.39-2.15c.13-.21.36-.33.61-.33h8.33c1.21 0 2.19-.97 2.19-2.17V3.62c0-1.2-.98-2.17-2.19-2.17H3.65z"/></svg><svg viewBox="0 0 20.18 15.5" id="comment-artcl-footer" xmlns="http://www.w3.org/2000/svg"><path class="ahst0" d="M16.68 0H3.51C1.57 0 0 1.57 0 3.51V9c0 1.93 1.57 3.51 3.51 3.51h.93l1.72 2.68c.13.2.35.32.59.32s.46-.12.59-.32l1.72-2.68h7.63c1.93 0 3.51-1.57 3.51-3.51V3.51C20.18 1.57 18.61 0 16.68 0z"/></svg><svg viewBox="0 0 20.18 15.5" id="comment-artcl-footer-hover" xmlns="http://www.w3.org/2000/svg"><path class="aist0" d="M16.68 0H3.51C1.57 0 0 1.57 0 3.51V9c0 1.93 1.57 3.51 3.51 3.51h.93l1.72 2.68c.13.2.35.32.59.32s.46-.12.59-.32l1.72-2.68h7.63c1.93 0 3.51-1.57 3.51-3.51V3.51C20.18 1.57 18.61 0 16.68 0z"/></svg><svg viewBox="0 0 35 26" id="comment-now" xmlns="http://www.w3.org/2000/svg"><path class="ajst0" d="M25.14 4.06L21.95.91C21.37.33 20.58 0 19.76 0c-.82 0-1.61.33-2.19.91L1.04 17.44c-.14.14-.23.32-.25.52l-.78 7.08c-.03.25.05.49.22.68.16.18.39.28.64.28h.1l7.08-.79c.2-.02.38-.11.52-.25L25.14 8.43c.58-.58.91-1.37.91-2.19 0-.82-.33-1.6-.91-2.18zM8.1 22.98L3.02 17.9 15.83 5.1l5.07 5.07L8.1 22.98zm-5.76-3.27l3.95 3.95-4.45.49.5-4.44zM23.87 7.2l-1.73 1.73-5.07-5.07 1.73-1.73c.53-.53 1.39-.53 1.92 0l3.15 3.15c.53.53.53 1.39 0 1.92z"/><circle class="ajst0" cx="19.34" cy="23.98" r="1.54"/><circle class="ajst0" cx="26.4" cy="23.98" r="1.54"/><circle class="ajst0" cx="33.46" cy="23.98" r="1.54"/></svg><svg viewBox="0 0 19 19" id="favorites-artcl-footer" xmlns="http://www.w3.org/2000/svg"><path class="akst0" d="M18.47 8.99c.48-.49.65-1.2.44-1.86a1.78 1.78 0 0 0-1.43-1.25l-4.44-.72-1.95-4.13C10.79.39 10.18 0 9.5 0S8.21.39 7.91 1.02l-2.03 4.2-4.37.66c-.67.1-1.22.58-1.43 1.25-.2.66-.03 1.37.45 1.86l3.16 3.22c.03.03.04.08.04.12l-.75 4.54c-.11.68.15 1.36.7 1.78.31.23.67.35 1.04.35.28 0 .57-.07.83-.22l3.98-2.14 3.91 2.14c.59.32 1.33.27 1.88-.14.54-.41.81-1.09.7-1.78l-.75-4.54c-.01-.04.01-.09.03-.12l3.17-3.21z"/></svg><svg viewBox="0 0 19 19" id="favorites-artcl-footer-hover" xmlns="http://www.w3.org/2000/svg"><path class="alst0" d="M18.47 8.99c.48-.49.65-1.2.44-1.86a1.78 1.78 0 0 0-1.43-1.25l-4.44-.72-1.95-4.13C10.79.39 10.18 0 9.5 0S8.21.39 7.91 1.02l-2.03 4.2-4.37.66c-.67.1-1.22.58-1.43 1.25-.2.66-.03 1.37.45 1.86l3.16 3.22c.03.03.04.08.04.12l-.75 4.54c-.11.68.15 1.36.7 1.78.31.23.67.35 1.04.35.28 0 .57-.07.83-.22l3.98-2.14 3.91 2.14c.59.32 1.33.27 1.88-.14.54-.41.81-1.09.7-1.78l-.75-4.54c-.01-.04.01-.09.03-.12l3.17-3.21z"/></svg><svg viewBox="0 0 21 11" id="impression" xmlns="http://www.w3.org/2000/svg"><path class="amst2" d="M20.89 5.11C19.81 3.34 16.25 0 10.5 0 4.75 0 1.19 3.34.11 5.11a.75.75 0 0 0 0 .79C1.19 7.66 4.75 11 10.5 11c5.75 0 9.31-3.34 10.39-5.11.15-.24.15-.54 0-.78zM1.57 5.5c.85-1.1 2.88-2.94 6.03-3.7-1.03.88-1.71 2.2-1.71 3.7s.67 2.82 1.71 3.7c-3.15-.76-5.18-2.6-6.03-3.7zM13.4 9.2c1.03-.88 1.71-2.2 1.71-3.7s-.67-2.82-1.71-3.7c3.15.75 5.18 2.59 6.03 3.7-.85 1.1-2.88 2.94-6.03 3.7z"/></svg><svg viewBox="0 0 20.91 10.53" id="impression-artcl-footer" xmlns="http://www.w3.org/2000/svg"><path class="anst0" d="M20.8 4.89C19.73 3.2 16.18 0 10.46 0 4.73 0 1.19 3.2.11 4.89c-.15.23-.15.52 0 .75 1.08 1.69 4.62 4.89 10.35 4.89 5.72 0 9.27-3.2 10.35-4.89.14-.23.14-.52-.01-.75zM10.46 9.85a4.59 4.59 0 1 1 4.59-4.59 4.596 4.596 0 0 1-4.59 4.59z"/><path class="anst0" d="M10.46 2.51c-1.52 0-2.76 1.24-2.76 2.76s1.24 2.76 2.76 2.76 2.76-1.24 2.76-2.76-1.24-2.76-2.76-2.76z"/></svg><svg viewBox="0 0 24 24" id="insta" xmlns="http://www.w3.org/2000/svg"><path class="aost0" d="M17.38 0H6.62C2.97 0 0 2.97 0 6.62v10.75C0 21.03 2.97 24 6.62 24h10.75c3.65 0 6.62-2.97 6.62-6.62V6.62C24 2.97 21.03 0 17.38 0zm4.49 17.38c0 2.48-2.02 4.49-4.49 4.49H6.62c-2.48 0-4.49-2.02-4.49-4.49V6.62c0-2.48 2.02-4.49 4.49-4.49h10.75c2.48 0 4.49 2.02 4.49 4.49l.01 10.76z"/><path class="aost0" d="M12 5.82c-3.41 0-6.18 2.77-6.18 6.18 0 3.41 2.77 6.18 6.18 6.18s6.18-2.77 6.18-6.18c0-3.41-2.77-6.18-6.18-6.18zm0 10.23c-2.24 0-4.05-1.82-4.05-4.05 0-2.24 1.82-4.05 4.05-4.05s4.05 1.82 4.05 4.05c0 2.24-1.81 4.05-4.05 4.05zm6.44-12.04a1.569 1.569 0 0 0-1.56 1.56 1.569 1.569 0 0 0 1.56 1.56A1.569 1.569 0 0 0 20 5.57c0-.41-.17-.81-.46-1.1-.28-.29-.68-.46-1.1-.46z"/></svg><svg version="1.1" id="insta-hover" x="0" y="0" viewBox="0 0 24 24" xml:space="preserve" xmlns="http://www.w3.org/2000/svg"><style>.apst0{fill:#d5ad5d}</style><path class="apst0" d="M17.38 0H6.62C2.97 0 0 2.97 0 6.62v10.75C0 21.03 2.97 24 6.62 24h10.75c3.65 0 6.62-2.97 6.62-6.62V6.62C24 2.97 21.03 0 17.38 0zm4.49 17.38c0 2.48-2.02 4.49-4.49 4.49H6.62c-2.48 0-4.49-2.02-4.49-4.49V6.62c0-2.48 2.02-4.49 4.49-4.49h10.75c2.48 0 4.49 2.02 4.49 4.49l.01 10.76z"/><path class="apst0" d="M12 5.82c-3.41 0-6.18 2.77-6.18 6.18s2.77 6.18 6.18 6.18 6.18-2.77 6.18-6.18S15.41 5.82 12 5.82zm0 10.23c-2.24 0-4.05-1.82-4.05-4.05 0-2.24 1.82-4.05 4.05-4.05s4.05 1.82 4.05 4.05c0 2.24-1.81 4.05-4.05 4.05zm6.44-12.04a1.569 1.569 0 0 0-1.56 1.56 1.569 1.569 0 0 0 1.56 1.56A1.569 1.569 0 0 0 20 5.57c0-.41-.17-.81-.46-1.1-.28-.29-.68-.46-1.1-.46z"/></svg><svg viewBox="0 0 23 19" id="like" xmlns="http://www.w3.org/2000/svg"><path class="aqst2" d="M23 9.26c0-1.1-.91-2-2.04-2h-7.34V3.94c0-2.17-1.8-3.94-4.01-3.94-.4 0-.72.32-.72.71v4.9c0 1.15-1.59 1.68-1.61 1.68-.3.09-.5.37-.5.68v10.32c0 .39.32.71.72.71h10.02c1.12 0 2.04-.9 2.04-2 0-.21-.03-.4-.09-.59 1.02-.11 1.81-.96 1.81-1.99 0-.21-.03-.4-.09-.59 1.02-.11 1.81-.96 1.81-1.99 0-.49-.18-.94-.48-1.29.3-.35.48-.8.48-1.29zm-2.04 3.16h-3.75c-.4 0-.72.32-.72.71 0 .39.32.71.72.71h2.04c.32.01.58.26.58.58 0 .32-.26.58-.59.58H16.7c-.4 0-.72.32-.72.71 0 .39.32.71.72.71h.84c.31.01.57.26.57.57 0 .32-.26.58-.59.58H8.23V8.45c.76-.36 2.11-1.22 2.11-2.83v-4.1c1.06.31 1.84 1.27 1.84 2.42v4.03c0 .39.32.71.72.71h8.06c.32 0 .59.26.59.58 0 .32-.26.58-.59.58h-3.37c-.4 0-.72.32-.72.71 0 .39.32.71.72.71h3.37c.32 0 .59.26.59.58 0 .32-.26.58-.59.58zM4.95 7.4H.72c-.4 0-.72.32-.72.71v10.18c0 .39.32.71.72.71h4.22c.4 0 .72-.32.72-.71V8.11a.7.7 0 0 0-.71-.71zm-.73 10.18H1.45V8.82h2.78v8.76z"/></svg><svg viewBox="0 0 22.27 18.72" id="like-artcl-footer" xmlns="http://www.w3.org/2000/svg"><path class="arst0" d="M22.27 9.13c0-1.09-.88-1.97-1.97-1.97h-7.1V3.88A3.899 3.899 0 0 0 9.31 0c-.39 0-.7.31-.7.7v4.83c0 1.13-1.54 1.65-1.55 1.66a.7.7 0 0 0-.49.67v10.17c0 .39.31.7.7.7h9.7a1.967 1.967 0 0 0 1.88-2.55 1.98 1.98 0 0 0 1.75-1.96c0-.2-.03-.4-.09-.58a1.98 1.98 0 0 0 1.75-1.96c0-.48-.18-.93-.47-1.27.3-.36.48-.8.48-1.28zM4.79 7.29H.7c-.39 0-.7.31-.7.7v10.03c0 .39.31.7.7.7h4.09c.39 0 .7-.31.7-.7V7.99c0-.39-.32-.7-.7-.7z"/></svg><svg viewBox="0 0 22.27 18.72" id="like-artcl-footer-hover" xmlns="http://www.w3.org/2000/svg"><path d="M22.27 9.13c0-1.09-.88-1.97-1.97-1.97h-7.1V3.88A3.899 3.899 0 0 0 9.31 0c-.39 0-.7.31-.7.7v4.83c0 1.13-1.54 1.65-1.55 1.66a.7.7 0 0 0-.49.67v10.17c0 .39.31.7.7.7h9.7a1.967 1.967 0 0 0 1.88-2.55 1.98 1.98 0 0 0 1.75-1.96c0-.2-.03-.4-.09-.58a1.98 1.98 0 0 0 1.75-1.96c0-.48-.18-.93-.47-1.27.3-.36.48-.8.48-1.28zM4.79 7.29H.7c-.39 0-.7.31-.7.7v10.03c0 .39.31.7.7.7h4.09c.39 0 .7-.31.7-.7V7.99c0-.39-.32-.7-.7-.7z" fill="#d5ad5d"/></svg><svg viewBox="0 0 33 23" id="send" xmlns="http://www.w3.org/2000/svg"><path class="atst0" d="M33 11.32c0-.05 0-.09-.01-.14l-.07-.27c-.02-.05-.04-.1-.08-.16-.03-.05-.06-.09-.1-.14-.04-.05-.08-.09-.13-.14-.04-.04-.09-.07-.13-.1L11.35.12c-.44-.22-.97-.14-1.32.2-.36.33-.46.85-.26 1.29l4.4 9.74-4.06 10.08c-.17.42-.07.91.3 1.27.22.19.5.29.78.29.18 0 .36-.04.53-.13l20.64-10.52.15-.09c.04-.03.09-.06.12-.1.05-.04.09-.09.13-.14.04-.05.08-.1.1-.15.03-.05.05-.1.07-.15l.07-.21v-.18zM11.49 21.53l4.11-10.21-4.45-9.85 20.35 9.86-20.01 10.2z"/><path class="atst0" d="M10.98 11.32c0-.27-.23-.5-.5-.5H.5a.495.495 0 0 0-.35.85c.09.09.22.15.36.15h9.97c.27 0 .5-.22.5-.5zm-1.57 3.37H4.42a.495.495 0 0 0-.35.85c.09.09.22.15.36.15h4.99c.28 0 .5-.22.5-.5a.51.51 0 0 0-.51-.5zM4.42 7.96h4.99c.28 0 .5-.22.5-.5 0-.27-.23-.5-.5-.5H4.42a.495.495 0 0 0-.35.85c.09.09.21.15.35.15z"/></svg><svg viewBox="0 0 18 18" id="settings-work-tool" xmlns="http://www.w3.org/2000/svg"><path class="aust0" d="M17.9 8c0-.3-.3-.4-.6-.4-.8 0-1.6-.5-1.9-1.2-.3-.8-.1-1.7.5-2.2.2-.2.2-.5.1-.7-.4-.5-.9-1-1.4-1.4-.2-.2-.5-.1-.7.1-.5.6-1.5.8-2.2.5-.8-.3-1.3-1.1-1.2-2 0-.3-.2-.5-.4-.5C9.4 0 8.7 0 8 .1c-.3 0-.5.3-.4.5 0 .8-.5 1.6-1.2 1.9-.8.3-1.7.1-2.3-.5-.2-.2-.5-.2-.7-.1-.5.4-1 .9-1.4 1.5-.2.2-.2.5 0 .6.6.6.8 1.5.5 2.2-.3.8-1 1.3-1.9 1.3-.3 0-.5.2-.5.5-.1.6-.1 1.3 0 2 0 .3.3.4.6.4.8 0 1.5.5 1.9 1.2.3.8.1 1.7-.5 2.2-.2.2-.2.5-.1.7.4.5.9 1 1.4 1.4.2.3.5.3.6.1.5-.6 1.5-.8 2.2-.5.8.3 1.3 1.1 1.2 2 0 .3.2.5.4.5H9c.3 0 .7 0 1-.1.3 0 .5-.3.4-.5 0-.8.5-1.6 1.2-1.9.7-.3 1.7-.1 2.2.5.2.2.5.2.7.1.5-.4 1-.9 1.5-1.4.2-.2.1-.5-.1-.7-.6-.6-.8-1.5-.5-2.2.3-.7 1-1.2 1.8-1.2h.1c.3 0 .5-.2.5-.4.2-.8.2-1.5.1-2.2zM9 12c-1.7 0-3-1.3-3-3s1.3-3 3-3 3 1.3 3 3-1.3 3-3 3z"/></svg><svg viewBox="0 0 23 21" id="share" xmlns="http://www.w3.org/2000/svg"><path class="avst0" d="M.53 21c-.06 0-.13-.01-.19-.04a.508.508 0 0 1-.34-.49v-3.15C0 11.05 5.12 5.95 11.41 5.95h1.41V.52c0-.22.13-.41.34-.49.2-.08.43-.02.58.14l9.12 9.97c.18.2.18.51 0 .71l-9.12 9.97a.53.53 0 0 1-.58.14.531.531 0 0 1-.34-.49l-.02-5.42c-4.19 0-8.2 1.77-11.03 4.85l-.86.94c-.1.1-.24.16-.38.16zM11.41 7C5.7 7 1.05 11.63 1.05 17.32v1.8a16.06 16.06 0 0 1 11.75-5.13h.55c.29 0 .53.23.53.53v4.59l7.88-8.61-7.88-8.61v4.59c0 .29-.24.53-.53.53h-1.94z"/></svg><svg viewBox="0 0 23 21" id="share-hover" xmlns="http://www.w3.org/2000/svg"><path d="M.53 21c-.06 0-.13-.01-.19-.04a.508.508 0 0 1-.34-.49v-3.15C0 11.05 5.12 5.95 11.41 5.95h1.41V.52c0-.22.13-.41.34-.49.2-.08.43-.02.58.14l9.12 9.97c.18.2.18.51 0 .71l-9.12 9.97c-.15.16-.38.22-.58.14s-.34-.27-.34-.49l-.02-5.42c-4.19 0-8.2 1.77-11.03 4.85l-.86.94c-.1.1-.24.16-.38.16zM11.41 7C5.7 7 1.05 11.63 1.05 17.32v1.8a16.06 16.06 0 0 1 11.75-5.13h.55c.29 0 .53.23.53.53v4.59l7.88-8.61-7.88-8.61v4.59c0 .29-.24.53-.53.53L11.41 7z" fill="#d5ad5d"/></svg><svg viewBox="0 0 41.24 30.8" id="share-social-hover" xmlns="http://www.w3.org/2000/svg"><path fill="#fff" d="M40.74.5H.5v22.26h16.61l3.51 6.93 3.51-6.93h16.61z"/><path d="M20.62 30.8l-3.82-7.54H0V0h41.24v23.26h-16.8l-3.82 7.54zM1 22.26h16.42l3.2 6.32 3.2-6.32h16.42V1H1v21.26z" fill="#d5ad5d"/></svg><svg viewBox="0 0 26 25" id="star-readers-recommend" xmlns="http://www.w3.org/2000/svg"><path class="ayst0" d="M13 0c.97 0 1.84.54 2.28 1.42l2.48 5.03c.1.21.3.35.53.38l5.54.81c.96.14 1.75.8 2.05 1.73.3.93.05 1.92-.64 2.6l-4.01 3.91a.68.68 0 0 0-.2.62l.95 5.53c.16.96-.22 1.91-1.01 2.48-.79.57-1.81.65-2.67.19l-4.96-2.61a.681.681 0 0 0-.65 0L7.73 24.7c-.86.45-1.88.38-2.67-.19a2.52 2.52 0 0 1-1.01-2.48L5 16.5a.708.708 0 0 0-.2-.62L.79 11.97c-.7-.68-.94-1.68-.64-2.6.3-.93 1.09-1.59 2.05-1.73l5.54-.81c.23-.03.43-.18.53-.38l2.48-5.03C11.16.54 12.03 0 13 0zm6.47 23.16c.19 0 .34-.09.41-.14.11-.08.35-.3.28-.69l-.95-5.53c-.14-.82.13-1.66.73-2.25l4.01-3.91c.28-.27.22-.59.18-.72s-.18-.42-.57-.48l-5.54-.81a2.53 2.53 0 0 1-1.91-1.39l-2.48-5.03a.686.686 0 0 0-.63-.39c-.13 0-.45.04-.63.39L9.89 7.26a2.53 2.53 0 0 1-1.91 1.39l-5.54.8a.702.702 0 0 0-.39 1.2l4.01 3.91c.6.58.87 1.42.73 2.25l-.95 5.53c-.07.39.17.61.28.69.11.08.39.24.74.05l4.96-2.61c.74-.39 1.62-.39 2.36 0l4.96 2.61c.12.06.23.08.33.08z"/></svg><svg viewBox="0 0 400 496" id="tag" xmlns="http://www.w3.org/2000/svg"><path class="azst0" d="M320 0H79.99C35.93.05.05 35.93 0 80v400c0 6.9 4.4 13 10.94 15.18 1.67.56 3.38.82 5.07.82 4.94 0 9.71-2.29 12.79-6.4L136 346.67 243.2 489.6c3 4.01 7.79 6.4 12.8 6.4 8.82 0 16-7.18 16-16V224h112c8.82 0 16-7.18 16-16V79.99C399.95 35.93 364.07.05 320 0zm0 32c26.47 0 48 21.53 48 48v112h-96V80c0-26.47 21.53-48 48-48zm-80 48v352l-91.2-121.6c-3-4.01-7.79-6.4-12.8-6.4s-9.8 2.39-12.8 6.4L32 432V80.01C32.03 53.57 53.57 32.03 80 32h175.99C245.68 45.68 240 62.42 240 80z"/></svg><svg viewBox="0 0 27 23" id="twitter" xmlns="http://www.w3.org/2000/svg"><path d="M27 2.72c-.99.46-2.06.77-3.18.91A5.794 5.794 0 0 0 26.25.42a10.62 10.62 0 0 1-3.52 1.41C21.72.7 20.29 0 18.69 0c-3.06 0-5.54 2.6-5.54 5.81 0 .45.05.9.14 1.32-4.6-.24-8.68-2.55-11.41-6.07-.48.86-.75 1.86-.75 2.92 0 2.02.98 3.79 2.47 4.83-.91-.03-1.77-.29-2.51-.72v.07c0 2.81 1.91 5.16 4.44 5.7-.46.13-.95.2-1.46.2-.36 0-.7-.04-1.04-.11.71 2.31 2.75 3.99 5.17 4.03a10.754 10.754 0 0 1-6.88 2.48c-.45 0-.89-.03-1.32-.08A15.06 15.06 0 0 0 8.49 23c10.19 0 15.76-8.85 15.76-16.53l-.02-.75c1.09-.81 2.03-1.83 2.77-3z" fill="#1d1d1d"/></svg><svg viewBox="0 0 27 23" id="twitter-hover" xmlns="http://www.w3.org/2000/svg"><path d="M27 2.72c-.99.46-2.06.77-3.18.91A5.794 5.794 0 0 0 26.25.42a10.62 10.62 0 0 1-3.52 1.41C21.72.7 20.29 0 18.69 0c-3.06 0-5.54 2.6-5.54 5.81 0 .45.05.9.14 1.32-4.6-.24-8.68-2.55-11.41-6.07-.48.86-.75 1.86-.75 2.92 0 2.02.98 3.79 2.47 4.83-.91-.03-1.77-.29-2.51-.72v.07c0 2.81 1.91 5.16 4.44 5.7-.46.13-.95.2-1.46.2-.36 0-.7-.04-1.04-.11.71 2.31 2.75 3.99 5.17 4.03a10.754 10.754 0 0 1-6.88 2.48c-.45 0-.89-.03-1.32-.08A15.06 15.06 0 0 0 8.49 23c10.19 0 15.76-8.85 15.76-16.53l-.02-.75c1.09-.81 2.03-1.83 2.77-3z" fill="#d5ad5d"/></svg><svg viewBox="0 0 29 17" id="vk" xmlns="http://www.w3.org/2000/svg"><path d="M28.34 1.15c.2-.66 0-1.15-.96-1.15h-3.17c-.81 0-1.18.42-1.38.89 0 0-1.62 3.88-3.9 6.4-.74.73-1.08.96-1.48.96-.2 0-.51-.23-.51-.9v-6.2c0-.8-.23-1.15-.89-1.15h-4.99c-.51 0-.81.37-.81.72 0 .75 1.14.93 1.26 3.05v4.61c0 1.01-.18 1.2-.59 1.2-1.08 0-3.69-3.9-5.24-8.36C5.38.35 5.07 0 4.26 0H1.09C.18 0 0 .42 0 .89c0 .83 1.08 4.95 5.01 10.39C7.63 14.99 11.33 17 14.69 17c2.02 0 2.27-.45 2.27-1.22 0-3.55-.18-3.88.83-3.88.47 0 1.28.23 3.16 2.02C23.1 16.05 23.46 17 24.66 17h3.17c.9 0 1.36-.45 1.1-1.33-.6-1.85-4.68-5.67-4.86-5.92-.47-.6-.33-.86 0-1.39 0-.01 3.87-5.38 4.27-7.21z" fill="#1d1d1d"/></svg><svg viewBox="0 0 29 17" id="vk-hover" xmlns="http://www.w3.org/2000/svg"><path d="M28.34 1.15c.2-.66 0-1.15-.96-1.15h-3.17c-.81 0-1.18.42-1.38.89 0 0-1.62 3.88-3.9 6.4-.74.73-1.08.96-1.48.96-.2 0-.51-.23-.51-.9v-6.2c0-.8-.23-1.15-.89-1.15h-4.99c-.51 0-.81.37-.81.72 0 .75 1.14.93 1.26 3.05v4.61c0 1.01-.18 1.2-.59 1.2-1.08 0-3.69-3.9-5.24-8.36C5.38.35 5.07 0 4.26 0H1.09C.18 0 0 .42 0 .89c0 .83 1.08 4.95 5.01 10.39C7.63 14.99 11.33 17 14.69 17c2.02 0 2.27-.45 2.27-1.22 0-3.55-.18-3.88.83-3.88.47 0 1.28.23 3.16 2.02C23.1 16.05 23.46 17 24.66 17h3.17c.9 0 1.36-.45 1.1-1.33-.6-1.85-4.68-5.67-4.86-5.92-.47-.6-.33-.86 0-1.39 0-.01 3.87-5.38 4.27-7.21z" fill="#d5ad5d"/></svg></svg>