<svg xmlns="http://www.w3.org/2000/svg" viewBox="0 0 26 25"><path class="st0" d="M13 0c.97 0 1.84.54 2.28 1.42l2.48 5.03c.1.21.3.35.53.38l5.54.81c.96.14 1.75.8 2.05 1.73.3.93.05 1.92-.64 2.6l-4.01 3.91a.68.68 0 0 0-.2.62l.95 5.53c.16.96-.22 1.91-1.01 2.48-.79.57-1.81.65-2.67.19l-4.96-2.61a.681.681 0 0 0-.65 0L7.73 24.7c-.86.45-1.88.38-2.67-.19a2.52 2.52 0 0 1-1.01-2.48L5 16.5a.708.708 0 0 0-.2-.62L.79 11.97c-.7-.68-.94-1.68-.64-2.6.3-.93 1.09-1.59 2.05-1.73l5.54-.81c.23-.03.43-.18.53-.38l2.48-5.03C11.16.54 12.03 0 13 0zm6.47 23.16c.19 0 .34-.09.41-.14.11-.08.35-.3.28-.69l-.95-5.53c-.14-.82.13-1.66.73-2.25l4.01-3.91c.28-.27.22-.59.18-.72s-.18-.42-.57-.48l-5.54-.81a2.53 2.53 0 0 1-1.91-1.39l-2.48-5.03a.686.686 0 0 0-.63-.39c-.13 0-.45.04-.63.39L9.89 7.26a2.53 2.53 0 0 1-1.91 1.39l-5.54.8a.702.702 0 0 0-.39 1.2l4.01 3.91c.6.58.87 1.42.73 2.25l-.95 5.53c-.07.39.17.61.28.69.11.08.39.24.74.05l4.96-2.61c.74-.39 1.62-.39 2.36 0l4.96 2.61c.12.06.23.08.33.08z"/></svg>