<svg xmlns="http://www.w3.org/2000/svg" viewBox="0 0 400 496"><path class="st0" d="M320 0H79.99C35.93.05.05 35.93 0 80v400c0 6.9 4.4 13 10.94 15.18 1.67.56 3.38.82 5.07.82 4.94 0 9.71-2.29 12.79-6.4L136 346.67 243.2 489.6c3 4.01 7.79 6.4 12.8 6.4 8.82 0 16-7.18 16-16V224h112c8.82 0 16-7.18 16-16V79.99C399.95 35.93 364.07.05 320 0zm0 32c26.47 0 48 21.53 48 48v112h-96V80c0-26.47 21.53-48 48-48zm-80 48v352l-91.2-121.6c-3-4.01-7.79-6.4-12.8-6.4s-9.8 2.39-12.8 6.4L32 432V80.01C32.03 53.57 53.57 32.03 80 32h175.99C245.68 45.68 240 62.42 240 80z"/></svg>