<svg xmlns="http://www.w3.org/2000/svg" viewBox="0 0 27 23"><path d="M27 2.72c-.99.46-2.06.77-3.18.91A5.794 5.794 0 0 0 26.25.42a10.62 10.62 0 0 1-3.52 1.41C21.72.7 20.29 0 18.69 0c-3.06 0-5.54 2.6-5.54 5.81 0 .45.05.9.14 1.32-4.6-.24-8.68-2.55-11.41-6.07-.48.86-.75 1.86-.75 2.92 0 2.02.98 3.79 2.47 4.83-.91-.03-1.77-.29-2.51-.72v.07c0 2.81 1.91 5.16 4.44 5.7-.46.13-.95.2-1.46.2-.36 0-.7-.04-1.04-.11.71 2.31 2.75 3.99 5.17 4.03a10.754 10.754 0 0 1-6.88 2.48c-.45 0-.89-.03-1.32-.08A15.06 15.06 0 0 0 8.49 23c10.19 0 15.76-8.85 15.76-16.53l-.02-.75c1.09-.81 2.03-1.83 2.77-3z" fill="#d5ad5d"/></svg>