<svg xmlns="http://www.w3.org/2000/svg" viewBox="0 0 29 17"><path d="M28.34 1.15c.2-.66 0-1.15-.96-1.15h-3.17c-.81 0-1.18.42-1.38.89 0 0-1.62 3.88-3.9 6.4-.74.73-1.08.96-1.48.96-.2 0-.51-.23-.51-.9v-6.2c0-.8-.23-1.15-.89-1.15h-4.99c-.51 0-.81.37-.81.72 0 .75 1.14.93 1.26 3.05v4.61c0 1.01-.18 1.2-.59 1.2-1.08 0-3.69-3.9-5.24-8.36C5.38.35 5.07 0 4.26 0H1.09C.18 0 0 .42 0 .89c0 .83 1.08 4.95 5.01 10.39C7.63 14.99 11.33 17 14.69 17c2.02 0 2.27-.45 2.27-1.22 0-3.55-.18-3.88.83-3.88.47 0 1.28.23 3.16 2.02C23.1 16.05 23.46 17 24.66 17h3.17c.9 0 1.36-.45 1.1-1.33-.6-1.85-4.68-5.67-4.86-5.92-.47-.6-.33-.86 0-1.39 0-.01 3.87-5.38 4.27-7.21z" fill="#1d1d1d"/></svg>